<?xml version="1.0" encoding="UTF-8"?>
<svg id="Layer_1" data-name="Layer 1" xmlns="http://www.w3.org/2000/svg" viewBox="0 0 498.53 444.01">
  <defs>
    <style>
      .cls-1, .cls-2, .cls-3, .cls-4, .cls-5, .cls-6, .cls-7, .cls-8 {
        isolation: isolate;
      }

      .cls-1, .cls-3, .cls-9, .cls-5, .cls-6 {
        fill: #0a60d0;
      }

      .cls-1, .cls-3, .cls-4, .cls-5, .cls-6, .cls-7, .cls-8 {
        font-family: ConneqtRegular, Conneqt;
      }

      .cls-1, .cls-3, .cls-5, .cls-6 {
        font-size: 48px;
      }

      .cls-10, .cls-4, .cls-7, .cls-8 {
        fill: #46b6fd;
      }

      .cls-11 {
        fill: #fcbe1e;
      }

      .cls-3 {
        letter-spacing: -.06em;
      }

      .cls-4 {
        letter-spacing: 0em;
      }

      .cls-4, .cls-7, .cls-8 {
        font-size: 36px;
      }

      .cls-5 {
        letter-spacing: .02em;
      }

      .cls-6 {
        letter-spacing: -.03em;
      }

      .cls-12 {
        stroke: #46b6fd;
      }

      .cls-12, .cls-13 {
        fill: none;
        stroke-width: 2px;
      }

      .cls-14 {
        fill: #091b1f;
      }

      .cls-15 {
        letter-spacing: -.08em;
      }

      .cls-16 {
        letter-spacing: -.04em;
      }

      .cls-17 {
        fill: #0a1c21;
      }

      .cls-8 {
        letter-spacing: 0em;
      }

      .cls-13 {
        stroke: #0a60d0;
      }
    </style>
  </defs>
  <g class="cls-2">
    <text class="cls-1" transform="translate(6.9 384.24)"><tspan x="0" y="0">DIGI</tspan></text>
    <text class="cls-3" transform="translate(114.71 384.24)"><tspan x="0" y="0">T</tspan></text>
    <text class="cls-1" transform="translate(145.86 384.24)"><tspan x="0" y="0">AL </tspan></text>
    <text class="cls-5" transform="translate(226.69 384.24)"><tspan x="0" y="0">B</tspan></text>
    <text class="cls-1" transform="translate(264.13 384.24)"><tspan x="0" y="0">URN</tspan></text>
    <text class="cls-5" transform="translate(380.38 384.24)"><tspan x="0" y="0">B</tspan></text>
    <text class="cls-6" transform="translate(417.92 384.24)"><tspan x="0" y="0">A</tspan></text>
    <text class="cls-1" transform="translate(452.96 384.24)"><tspan x="0" y="0">G</tspan></text>
  </g>
  <g class="cls-2">
    <text class="cls-7" transform="translate(56.87 434.59)"><tspan x="0" y="0">CANA</tspan></text>
    <text class="cls-4" transform="translate(166.6 434.59)"><tspan x="0" y="0">R</tspan></text>
    <text class="cls-7" transform="translate(193.99 434.59)"><tspan x="0" y="0">Y P</tspan></text>
    <text class="cls-7" transform="translate(258.32 434.59)"><tspan x="0" y="0">R</tspan></text>
    <text class="cls-7" transform="translate(286.33 434.59)"><tspan class="cls-15" x="0" y="0">O</tspan><tspan class="cls-16" x="26.75" y="0">T</tspan></text>
    <text class="cls-8" transform="translate(338.6 434.59)"><tspan x="0" y="0">O</tspan></text>
    <text class="cls-7" transform="translate(368.59 434.59)"><tspan x="0" y="0">C</tspan></text>
    <text class="cls-7" transform="translate(394.11 434.59)"><tspan x="0" y="0">OL</tspan></text>
  </g>
  <path class="cls-11" d="M246.58,435.19c.07-.18.28-.31.63-.46-.07.16-.28.33-.63.46Z"/>
  <path class="cls-11" d="M243.14,434.86c.12-.07.21,0,.32.16.04.07-.17.1-.17.1,0,0-.15-.15-.15-.25h0Z"/>
  <path class="cls-10" d="M295.38,283.65c4.54,0,9.13.56,13.68-1.09-1.24.52-2.62,1.07-4.04,1.53-.41.14-.92.03-1.37.03-35.51,0-71.02.01-106.53-.04-1.58,0-3.16-.62-4.82-1.07,11.44,1.63,23.02.55,34.58.65,22.18.19,44.37.05,66.89.05.76-.01,1.19-.04,1.61-.06h0Z"/>
  <path class="cls-10" d="M191.87,282.68c.07-.04.19,0,.35.14-.09.08-.2.03-.35-.14Z"/>
  <path class="cls-10" d="M191.08,282.28c.07-.04.19,0,.35.14-.09.07-.2.02-.35-.14Z"/>
  <path class="cls-14" d="M295.29,283.57c-.33.11-.75.13-1.33.12.31-.09.78-.15,1.33-.12Z"/>
  <path class="cls-12" d="M163.8,230.74l11.14-12.32" vector-effect="non-scaling-stroke"/>
  <path class="cls-12" d="M174.93,218.42l7.89-8.89" vector-effect="non-scaling-stroke"/>
  <path class="cls-12" d="M182.83,209.53l17.56-19.28" vector-effect="non-scaling-stroke"/>
  <path class="cls-12" d="M200.39,190.25l20.67-22.87" vector-effect="non-scaling-stroke"/>
  <path class="cls-12" d="M221.06,167.38l8.86-9.46" vector-effect="non-scaling-stroke"/>
  <path class="cls-12" d="M229.93,157.92c6.77-7.25,13.57-14.43,20.41-21.56,2.67-2.79,5.45-5.37,5.54-9.59.19-8.3-2.92-16.1-8.66-22.05-.12-.13-.34-.03-.33.14.09,1.72.08,3.61-.03,5.67-.46,8.74-5.83,16.48-13.02,21.06-.22.14-.52.04-.61-.2-2.21-5.68-2.99-11.44-2.34-17.27.6-5.34,2.8-12.29,3.29-17.86.49-5.48.41-10.3-.24-14.48-2.03-12.97-9.09-24.45-20.29-31.41-.12-.07-.28.04-.24.18,1.64,5.62,2.31,11.43,1.98,17.46-.51,9.46-4.45,19.09-8.17,27.78-1.53,3.58-3.05,8-3.66,11.3-1.12,6.09-.77,12.2,1.02,18.35,1.7,5.81,2.75,9.39,3.13,10.73.86,2.99,1.18,5.91.96,8.76,0,.15-.22.18-.27.03-1.3-3.81-3.26-8.51-6.12-12.39-5.77-7.82-12.38-15.54-13.08-25.74-.54-7.88,1.23-16.44,3.9-24.09.05-.15-.11-.28-.24-.2-8.47,5.3-15.09,12.37-19.88,21.21-4.26,7.86-6.45,18.29-5.45,27.13.88,7.77,4.18,15.08,6.59,22,4.01,11.53,1.01,23.72-5.3,33.8-.05.08-.17.09-.23.01-3.48-4.56-5.73-9.42-4.9-15.4.29-2.08.58-4.18.88-6.3,1.5-10.58-3.47-19.05-10.73-26.28-.1-.1-.27-.01-.25.12.48,3.71.57,7.66.26,11.86-.2,2.73-1.09,5.8-2.67,9.21-1.66,3.6-3.1,6.51-4.32,8.72-3,5.44-4.9,10.89-5.26,15.97-.48,6.75.33,13.43,2.43,20.05,1.62,5.07,3.86,11.63,6.7,19.7,1.91,5.41,2.88,10.97,2.88,16.7,0,.21.26.31.4.16l9.73-10.48" vector-effect="non-scaling-stroke"/>
  <path class="cls-12" d="M229.93,157.92c-.27-.12-.4-.43-.42-.92-.02-.46-.07-.81-.14-1.04-1.43-4.28-3.2-8.34-5.29-12.2-.11-.2-.41-.15-.45.08-.46,3.1-2.05,8.09-2.5,12.04-.44,3.77-.46,7.61-.05,11.49" vector-effect="non-scaling-stroke"/>
  <path class="cls-12" d="M200.39,190.25c.06-.82.31-1.64.75-2.45.07-.13.12-.27.16-.41.93-3.48,1.61-6.94,2.05-10.38.63-4.89.17-9.66-1.38-14.29-1.82-5.42-4.35-10.4-7.61-14.94-.07-.1-.22-.05-.24.06-.1.64-.14,1.16-.12,1.56.18,4.91.31,12.4-.66,18.28-.71,4.24-1.29,7.11-1.77,8.6-1.14,3.52-3.83,13.12-8.08,28.78-.52,1.92-.74,3.42-.65,4.49" vector-effect="non-scaling-stroke"/>
  <path class="cls-12" d="M174.93,218.42c-.24-.29-.44-.64-.59-1.05-.21-.58-.36-.96-.44-1.12-3.23-6.25-8.22-11.73-13.87-16.31-.15-.12-.37.04-.29.22.9,2.35,1.77,5.06,2.59,8.12,1.84,6.85,2.15,13.91.93,21.18-.1.58.08,1.01.54,1.26" vector-effect="non-scaling-stroke"/>
  <path class="cls-12" d="M181.51,228.45l11.67-2.53c.17-.04.29.17.17.29-4.94,5.27-13.21,12.77-19.34,18.92-16.86,16.9-29.04,29.08-44.17,43.72-.05.05-.07.12-.07.2,0,.1.11.16.2.13,2.07-.69,5.17-1.75,9.29-3.15,6.49-2.22,12.67-5.13,18.51-8.74,1.69-1.04,3.99-2.45,6.89-4.24.14-.09.29.09.2.22-3.88,5.37-8.09,10.75-12.63,16.13-.12.15.03.36.21.29,2.67-1.01,5.37-2.22,7.81-3.72,5.26-3.2,10.14-6.87,14.63-11,.05-.04.12-.05.17-.02.08.04.07.07-.03.1" vector-effect="non-scaling-stroke"/>
  <path class="cls-12" d="M175.03,275.05c.17,8.96,6.83,16.71,15.63,18.03,1.84.28,3.94.41,6.3.41,45.45,0,86.12,0,121.98,0,4.32,0,8.61-.86,12.17-3.37,4.4-3.09,7.1-7.15,8.1-12.19.23-1.16.34-5.07.34-11.72-.02-26.4,0-52.8.03-79.23" vector-effect="non-scaling-stroke"/>
  <path class="cls-12" d="M339.57,186.99c.75-3.47,1.24-5.86,1.46-7.15,1.86-11.21.84-20.93-1.01-33.09-1.1-7.21.16-15.93,4.7-21.79,1.56-2.01,2.72-3.61,3.5-4.79" vector-effect="non-scaling-stroke"/>
  <path class="cls-12" d="M348.2,120.18l20.45-8.17c.12-.05.14-.22.03-.29-6.53-4.01-13.45-7.17-20.75-9.49-.52-.17-.84-.44-.96-.84" vector-effect="non-scaling-stroke"/>
  <path class="cls-12" d="M346.97,101.37c-2.96-5.68-6.97-10.34-12.01-13.97-12.91-9.3-30.1-9.7-43.05-.14-7.02,5.2-12.26,11.77-15.71,19.75-1.61,3.72-2.85,6.66-3.73,8.83-1.6,3.96-2.96,6.85-4.07,8.64-3.12,5.05-6.56,9.08-10.29,13.24-26.16,29.12-51.37,57.07-75.62,83.84-2.56,2.83-4.92,5.39-7.09,7.69-.1.11,0,.29.14.27l5.94-1.07" vector-effect="non-scaling-stroke"/>
  <path class="cls-12" d="M346.97,101.37l-5.99,12.73c-.07.15-.03.34.1.44l7.12,5.62" vector-effect="non-scaling-stroke"/>
  <path class="cls-12" d="M339.57,186.99c-.37.82-.69,1.67-.95,2.56-.37,1.28-.65,2.14-.83,2.6-6.21,15.97-16.35,28.81-30.42,38.51-9.91,6.83-20.65,11.58-32.23,14.26-3.66.85-6.78,1.49-9.35,1.91-.12.02-.18.16-.12.26l15.09,26.13c.14.23.37.37.64.37,3.94,0,7.81.19,11.62.58,4.35.46,7.7,2.51,10.08,6.15.08.13,0,.29-.16.29h-66.25c-.22,0-.33-.25-.19-.41,4.52-5.3,11.32-7.81,18.15-8.74,4.09-.56,8.52-1.22,11.84-.61.85.16,1.59.24,2.21.24.13,0,.2-.15.11-.24-1.39-1.5-6.79-7.3-16.21-17.41-1.6-1.72-2.77-3.48-3.52-5.29-.05-.12-.16-.2-.28-.21l-33.48-3.35" vector-effect="non-scaling-stroke"/>
  <path class="cls-12" d="M215.31,244.6c.06-.2.26-.4.58-.58,7.43-4.09,14.46-7.26,21.09-9.5,2.42-.82,7.28-2.43,14.56-4.85,5.07-1.68,10.44-3.84,16.12-6.48,16.27-7.55,31.22-18.55,38.68-35.11,2.4-5.33,3.7-10.9,3.88-16.7.34-10.53-3.19-20.09-9.99-27.96-.03-.03-.07-.04-.1-.01-.03.02-.04.07-.02.1,2.9,5.56,4.01,11.18,3.31,17.71-.61,5.7-2.14,11.35-4.57,16.95-1.22,2.82-2.91,5.39-4.83,7.72-2.69,3.27-6.01,6.83-9.5,9.68-7.22,5.93-14.94,10.57-23.15,13.95-13.51,5.56-27.9,9.56-43.15,12.01-2.22.35-3.97.6-5.23.72-2.58.25-4.32.52-5.22.8-.07.02-.17,0-.31-.05-.1-.04-.1-.18,0-.23,3.25-1.64,5.76-3.74,9.48-6.67,3.67-2.9,6.41-5.32,8.19-7.24,4.16-4.48,7.95-8.21,11.34-11.21.03-.03.04-.07,0-.1h0s-.07-.04-.1-.01c-13.61,10.75-29.04,19.41-44.7,26.47-3.34,1.5-6.53,2.68-10.3,4.09-.1.04-.12.18-.02.24,0,0,.05.04.14.11" vector-effect="non-scaling-stroke"/>
  <path class="cls-13" d="M215.31,244.6c-4.1,2.26-8.25,4.9-12.44,7.92-6.23,4.48-11.94,8.82-17.12,13.01-3.37,2.72-6.63,5.56-9.8,8.52-.31.29-.62.61-.93.99" vector-effect="non-scaling-stroke"/>
  <path class="cls-12" d="M313.9,101.81c-1.8,3.51-.37,7.84,3.21,9.68,3.57,1.84,7.94.48,9.74-3.03,1.8-3.51.37-7.84-3.21-9.68-3.57-1.84-7.94-.48-9.74,3.03" vector-effect="non-scaling-stroke"/>
  <ellipse class="cls-17" cx="320.37" cy="105.13" rx="7.14" ry="7.28" transform="translate(80.43 342.02) rotate(-62.8)"/>
  <path class="cls-17" d="M348.2,120.18l-7.12-5.62c-.14-.1-.18-.29-.1-.44l5.99-12.73c.12.39.44.67.96.84,7.29,2.33,14.21,5.49,20.75,9.49.12.07.1.24-.03.29l-20.45,8.17Z"/>
  <path class="cls-17" d="M339.57,186.99c-.04,26.42-.05,52.83-.03,79.23,0,6.64-.1,10.55-.34,11.72-1,5.04-3.7,9.11-8.1,12.19-3.56,2.5-7.85,3.37-12.17,3.37-35.86,0-76.52,0-121.98,0-2.36,0-4.46-.14-6.3-.41-8.8-1.33-15.46-9.07-15.63-18.03.31-.37.63-.71.93-.99,3.16-2.96,6.43-5.8,9.8-8.52,5.18-4.19,10.89-8.53,17.12-13.01,4.2-3.02,8.34-5.66,12.44-7.92l33.48,3.35c.12.01.23.1.28.21.75,1.8,1.92,3.57,3.52,5.29,9.42,10.1,14.82,15.91,16.21,17.41.09.09.02.24-.11.24-.63,0-1.36-.09-2.21-.24-3.32-.61-7.75.05-11.84.61-6.83.93-13.63,3.44-18.15,8.74-.14.16-.03.41.19.41h66.25c.15,0,.24-.17.16-.29-2.38-3.64-5.74-5.69-10.08-6.15-3.81-.39-7.68-.59-11.62-.58-.27,0-.51-.14-.64-.37l-15.09-26.13c-.06-.1,0-.24.12-.26,2.58-.42,5.69-1.06,9.35-1.91,11.59-2.68,22.33-7.43,32.23-14.26,14.07-9.7,24.21-22.54,30.42-38.51.18-.46.46-1.33.83-2.6.26-.89.58-1.74.95-2.56v-.02h0Z"/>
  <path class="cls-9" d="M229.93,157.92c-.27-.12-.4-.43-.42-.92-.02-.46-.07-.81-.14-1.04-1.43-4.28-3.2-8.34-5.29-12.2-.11-.2-.41-.15-.45.08-.46,3.1-2.05,8.09-2.5,12.04-.44,3.77-.46,7.61-.05,11.49l-20.67,22.87c.06-.82.31-1.64.75-2.45.07-.13.12-.27.16-.41.93-3.48,1.61-6.94,2.05-10.38.63-4.89.17-9.66-1.38-14.29-1.82-5.42-4.35-10.4-7.61-14.94-.07-.1-.22-.05-.24.06-.1.64-.14,1.16-.12,1.56.18,4.91.31,12.4-.66,18.28-.71,4.24-1.29,7.11-1.77,8.6-1.14,3.52-3.83,13.12-8.08,28.78-.52,1.92-.74,3.42-.65,4.49l-7.89,8.89c-.24-.29-.44-.64-.59-1.05-.21-.58-.36-.96-.44-1.12-3.23-6.25-8.22-11.73-13.87-16.31-.15-.12-.37.04-.29.22.9,2.35,1.77,5.06,2.59,8.12,1.84,6.85,2.15,13.91.93,21.18-.1.58.08,1.01.54,1.26l-9.73,10.48c-.14.15-.4.05-.4-.16,0-5.73-.97-11.29-2.88-16.7-2.85-8.07-5.09-14.63-6.7-19.7-2.11-6.61-2.92-13.29-2.43-20.05.36-5.08,2.26-10.53,5.26-15.97,1.21-2.2,2.66-5.11,4.32-8.72,1.58-3.41,2.46-6.48,2.67-9.21.31-4.2.22-8.15-.26-11.86-.02-.14.15-.22.25-.12,7.26,7.24,12.23,15.7,10.73,26.28-.3,2.12-.6,4.22-.88,6.3-.84,5.98,1.41,10.85,4.9,15.4.06.07.18.07.23-.01,6.3-10.08,9.32-22.28,5.3-33.8-2.41-6.92-5.71-14.23-6.59-22-1.01-8.84,1.19-19.26,5.45-27.13,4.78-8.84,11.41-15.91,19.88-21.21.14-.08.29.05.24.2-2.67,7.64-4.43,16.2-3.9,24.09.69,10.19,7.32,17.92,13.08,25.74,2.86,3.88,4.82,8.57,6.12,12.39.05.14.26.12.27-.03.22-2.85-.1-5.77-.96-8.76-.39-1.34-1.43-4.92-3.13-10.73-1.8-6.15-2.14-12.26-1.02-18.35.61-3.29,2.12-7.72,3.66-11.3,3.72-8.69,7.66-18.32,8.17-27.78.33-6.02-.34-11.84-1.98-17.46-.04-.14.12-.26.24-.18,11.2,6.96,18.26,18.44,20.29,31.41.65,4.18.73,9,.24,14.48-.5,5.56-2.7,12.51-3.29,17.86-.65,5.82.13,11.57,2.34,17.27.1.24.39.34.61.2,7.18-4.58,12.55-12.32,13.02-21.06.11-2.07.12-3.96.03-5.67,0-.18.21-.27.33-.14,5.75,5.95,8.85,13.76,8.66,22.05-.1,4.22-2.87,6.81-5.54,9.59-6.83,7.12-13.64,14.3-20.41,21.56h-.04,0Z"/>
  <path class="cls-9" d="M215.31,244.6c-4.1,2.26-8.25,4.9-12.44,7.92-6.23,4.48-11.94,8.82-17.12,13.01-3.37,2.72-6.63,5.56-9.8,8.52-.31.29-.62.61-.93.99.1-.03.12-.06.03-.1-.05-.03-.12-.02-.17.02-4.5,4.13-9.38,7.79-14.63,11-2.45,1.5-5.15,2.71-7.81,3.72-.18.07-.33-.15-.21-.29,4.54-5.37,8.75-10.75,12.63-16.13.1-.14-.05-.31-.2-.22-2.9,1.78-5.2,3.2-6.89,4.24-5.85,3.6-12.02,6.51-18.51,8.74-4.12,1.41-7.21,2.45-9.29,3.15-.09.03-.19-.03-.2-.13,0-.08.02-.15.07-.2,15.13-14.64,27.31-26.82,44.17-43.72,6.13-6.15,14.4-13.65,19.34-18.92.12-.12,0-.33-.17-.29l-11.67,2.53c-.09-.07-.13-.1-.14-.11-.1-.05-.09-.2.02-.24,3.77-1.41,6.96-2.58,10.3-4.09,15.67-7.07,31.09-15.73,44.7-26.47.03-.02.07-.02.1,0h0s.02.08,0,.11c-3.39,2.99-7.18,6.73-11.34,11.21-1.79,1.92-4.52,4.34-8.19,7.24-3.72,2.94-6.23,5.04-9.48,6.67-.1.05-.09.19,0,.23.14.05.24.07.31.05.9-.28,2.65-.54,5.22-.8,1.26-.13,3.01-.37,5.23-.72,15.25-2.45,29.63-6.45,43.15-12.01,8.21-3.37,15.93-8.02,23.15-13.95,3.48-2.86,6.81-6.42,9.5-9.68,1.92-2.33,3.61-4.9,4.83-7.72,2.43-5.61,3.96-11.25,4.57-16.95.71-6.53-.41-12.16-3.31-17.71-.02-.03,0-.07.02-.1.03-.02.08-.01.1.01,6.8,7.87,10.33,17.43,9.99,27.96-.18,5.8-1.48,11.37-3.88,16.7-7.46,16.56-22.41,27.56-38.68,35.11-5.68,2.64-11.06,4.8-16.12,6.48-7.29,2.42-12.14,4.04-14.56,4.85-6.64,2.24-13.67,5.41-21.09,9.5-.33.18-.52.37-.58.58h-.01Z"/>
  <path class="cls-10" d="M346.97,101.37l-5.99,12.73c-.07.15-.03.34.1.44l7.12,5.62c-.77,1.18-1.94,2.77-3.5,4.79-4.54,5.87-5.8,14.58-4.7,21.79,1.86,12.16,2.88,21.88,1.01,33.09-.22,1.29-.7,3.67-1.46,7.15-.37.82-.69,1.67-.95,2.56-.37,1.28-.65,2.14-.83,2.6-6.21,15.97-16.35,28.81-30.42,38.51-9.91,6.83-20.65,11.58-32.23,14.26-3.66.85-6.78,1.49-9.35,1.91-.12.02-.18.16-.12.26l15.09,26.13c.14.23.37.37.64.37,3.94,0,7.81.19,11.62.58,4.35.46,7.7,2.51,10.08,6.15.08.13,0,.29-.16.29h-66.25c-.22,0-.33-.25-.19-.41,4.52-5.3,11.32-7.81,18.15-8.74,4.09-.56,8.52-1.22,11.84-.61.85.16,1.59.24,2.21.24.13,0,.2-.15.11-.24-1.39-1.5-6.79-7.3-16.21-17.41-1.6-1.72-2.77-3.48-3.52-5.29-.05-.12-.16-.2-.28-.21l-33.48-3.35c.06-.2.26-.4.58-.58,7.43-4.09,14.46-7.26,21.09-9.5,2.42-.82,7.28-2.43,14.56-4.85,5.07-1.68,10.44-3.84,16.12-6.48,16.27-7.55,31.22-18.55,38.68-35.11,2.4-5.33,3.7-10.9,3.88-16.7.34-10.53-3.19-20.09-9.99-27.96-.03-.03-.07-.04-.1-.01-.03.02-.04.07-.02.1,2.9,5.56,4.01,11.18,3.31,17.71-.61,5.7-2.14,11.35-4.57,16.95-1.22,2.82-2.91,5.39-4.83,7.72-2.69,3.27-6.01,6.83-9.5,9.68-7.22,5.93-14.94,10.57-23.15,13.95-13.51,5.56-27.9,9.56-43.15,12.01-2.22.35-3.97.6-5.23.72-2.58.25-4.32.52-5.22.8-.07.02-.17,0-.31-.05-.1-.04-.1-.18,0-.23,3.25-1.64,5.76-3.74,9.48-6.67,3.67-2.9,6.41-5.32,8.19-7.24,4.16-4.48,7.95-8.21,11.34-11.21.03-.03.04-.07,0-.1h0s-.07-.04-.1-.01c-13.61,10.75-29.04,19.41-44.7,26.47-3.34,1.5-6.53,2.68-10.3,4.09-.1.04-.12.18-.02.24,0,0,.05.04.14.11l-5.94,1.07c-.15.03-.24-.15-.14-.27,2.16-2.3,4.53-4.86,7.09-7.69,24.25-26.78,49.46-54.73,75.62-83.84,3.73-4.16,7.17-8.19,10.29-13.24,1.11-1.8,2.47-4.68,4.07-8.64.88-2.18,2.12-5.11,3.73-8.83,3.45-7.97,8.68-14.55,15.71-19.75,12.95-9.56,30.14-9.17,43.05.14,5.04,3.63,9.04,8.29,12.01,13.97v.03h0ZM313.9,101.81c-1.8,3.51-.37,7.84,3.21,9.68,3.57,1.84,7.94.48,9.74-3.03,1.8-3.51.37-7.84-3.21-9.68-3.57-1.84-7.94-.48-9.74,3.03Z"/>
  <path class="cls-10" d="M229.93,157.92l-8.86,9.46c-.39-3.89-.37-7.72.05-11.49.45-3.96,2.04-8.94,2.5-12.04.03-.23.34-.29.45-.08,2.1,3.86,3.86,7.92,5.29,12.2.07.23.12.58.14,1.04.03.5.16.8.42.92h0Z"/>
  <path class="cls-10" d="M200.39,190.25l-17.56,19.28c-.09-1.07.13-2.56.65-4.49,4.25-15.66,6.94-25.26,8.08-28.78.48-1.49,1.07-4.35,1.77-8.6.97-5.88.85-13.37.66-18.28-.01-.39.02-.91.12-1.56.02-.12.17-.16.24-.06,3.26,4.54,5.8,9.52,7.61,14.94,1.54,4.63,2.01,9.4,1.38,14.29-.44,3.45-1.12,6.91-2.05,10.38-.04.14-.09.28-.16.41-.44.82-.69,1.64-.75,2.45h0Z"/>
  <path class="cls-10" d="M174.93,218.42l-11.14,12.32c-.46-.26-.64-.68-.54-1.26,1.22-7.28.91-14.33-.93-21.18-.82-3.06-1.69-5.77-2.59-8.12-.07-.18.14-.34.29-.22,5.65,4.58,10.64,10.06,13.87,16.31.08.16.23.53.44,1.12.15.41.35.75.59,1.05h0Z"/>
</svg>