<?xml version="1.0" encoding="UTF-8"?>
<svg id="Layer_1" data-name="Layer 1" xmlns="http://www.w3.org/2000/svg" viewBox="0 0 3775.72 600">
  <defs>
    <style>
      .cls-1, .cls-2 {
        fill: #46b6fd;
      }

      .cls-2 {
        isolation: isolate;
      }

      .cls-3 {
        font-family: Inter-Bold, Inter;
        font-size: 433px;
        font-variation-settings: 'wght' 700, 'slnt' 0;
        font-weight: 700;
      }

      .cls-4 {
        fill: #0a60d0;
      }
    </style>
  </defs>
  <text class="cls-3" transform="translate(580.91 472.57)"><tspan class="cls-4" x="0" y="0">Digital</tspan><tspan class="cls-1" x="1361.86" y="0">Burnbag</tspan></text>
  <path class="cls-2" d="M115.23,129.4v128h384v-85.5c0-17-6.7-33.3-18.7-45.3l-42.6-42.5c-12-12-28.2-18.7-45.2-18.7h-213.5c-35.3,0-64,28.7-64,64ZM115.23,449.4v104c0,13.3,10.7,24,24,24s24-10.7,24-24v-104h-48ZM227.23,449.4v104c0,13.3,10.7,24,24,24s24-10.7,24-24v-104h-48ZM339.23,449.4v104c0,13.3,10.7,24,24,24s24-10.7,24-24v-104h-48ZM451.23,449.4v104c0,13.3,10.7,24,24,24s24-10.7,24-24v-104h-48Z"/>
  <path class="cls-4" d="M115.23,257.4c-35.3,0-64,28.7-64,64v96c0,17.7,14.3,32,32,32h448c17.7,0,32-14.3,32-32v-96c0-35.3-28.7-64-64-64H115.23ZM483.23,313.4c13.3,0,24,10.7,24,24s-10.7,24-24,24-24-10.7-24-24,10.7-24,24-24Z"/>
</svg>