<?xml version="1.0" encoding="UTF-8"?>
<svg id="Layer_1" data-name="Layer 1" xmlns="http://www.w3.org/2000/svg" viewBox="0 0 3182.62 600">
  <defs>
    <style>
      .cls-1 {
        letter-spacing: 0em;
      }

      .cls-2 {
        fill: #46b6fd;
      }

      .cls-3 {
        font-family: Inter-Bold, Inter;
        font-size: 433px;
        font-variation-settings: 'wght' 700, 'slnt' 0;
        font-weight: 700;
      }

      .cls-4 {
        fill: #0a60d0;
      }

      .cls-5 {
        letter-spacing: 0em;
      }

      .cls-6 {
        font-family: IBMPlexSans, 'IBM Plex Sans';
        font-size: 195px;
      }

      .cls-7 {
        letter-spacing: -.08em;
      }

      .cls-8 {
        letter-spacing: -.02em;
      }

      .cls-9 {
        letter-spacing: -.05em;
      }

      .cls-10 {
        letter-spacing: 0em;
      }

      .cls-11 {
        letter-spacing: 0em;
      }

      .cls-12 {
        letter-spacing: 0em;
      }

      .cls-13 {
        letter-spacing: 0em;
      }
    </style>
  </defs>
  <path class="cls-2" d="M438.28,0h16.11l10.84,1.17,11.43,1.76,8.79,2.05,6.15,1.76,11.72,4.1,8.2,3.81,7.62,3.81,4.39,2.64,6.74,4.1,4.98,3.52,5.27,3.81,4.1,3.22,4.69,4.39,1.76,1.46v.59l1.17.59,2.64,2.64,2.05,2.34,3.22,3.52,2.64,3.22,2.93,3.22,2.93,4.1,3.81,5.27,3.22,4.98,4.98,8.5,2.93,5.57,2.64,5.86,2.34,5.57,4.1,11.43,1.76,6.74,2.34,9.96,2.05,14.36.59,9.67v9.38l-.59,9.08-1.46,11.72-1.46,7.91-2.64,10.25-4.39,12.6-3.81,8.5-3.81,7.91-3.81,6.45-2.93,4.98-7.03,9.38-3.22,4.1-2.93,2.93-2.64,3.22-3.22,3.22-2.05,2.34-40.72,40.72-3.81,2.93-3.22,2.05-4.69,2.34-5.86,1.76-5.86.88h-5.27l-5.57-.88-4.39-1.17-4.69-2.34-3.52-2.05-4.1-3.52-2.34-2.05-2.34-2.64-2.64-3.52-2.93-5.27-1.76-5.57-.88-4.39-.29-2.34v-4.98l.88-6.15,2.05-6.45,3.81-6.74,2.34-2.64,2.64-3.22,37.79-37.79,1.46-1.76h.59l.59-1.17,2.93-2.93,2.64-3.22,3.81-5.27,4.1-7.03,2.93-6.15,2.05-5.57,1.46-5.27,1.46-7.03.59-3.52.29-4.1v-7.91l-.59-6.15-1.46-7.32-1.46-5.86-2.64-7.32-3.52-7.03-4.1-6.74-3.81-4.98-2.93-3.22-2.05-2.34-4.1-3.81-4.1-3.22-4.39-3.22-7.32-4.1-4.69-2.05-3.52-1.46-7.03-2.34-8.5-1.76-3.81-.59-5.27-.29h-4.98l-5.27.29-7.03,1.17-7.03,1.76-8.2,2.93-7.32,3.52-4.39,2.64-5.57,4.1-3.81,3.22-5.86,5.27-3.22,3.22-2.05,2.34-32.81,32.81-.59.88h-.59l-.59,1.17-49.51,49.51-4.1,4.39-19.34,19.34-2.64,3.22-2.34,2.64-4.39,5.86-2.64,4.39-2.34,4.39-3.22,8.2-2.64,8.79-1.17,6.15-.59,8.2v5.86l.59,7.03,1.46,7.32,2.34,7.62,2.64,7.03,3.52,6.74,2.93,4.69,4.1,5.27,3.22,3.52,2.64,3.22,3.22,3.81,2.64,4.1,2.34,4.69,1.46,4.98.88,6.45v4.69l-.88,5.86-1.76,5.86-3.52,6.45-3.22,3.81-2.05,2.34-2.05,2.05-4.1,3.22-5.86,3.22-4.39,1.46-3.22.88-7.91.88-7.32-.88-5.86-1.76-4.69-2.34-3.22-2.05-4.39-3.81-2.05-1.76-2.05-2.34-4.69-4.98-2.64-2.93-4.1-5.57-3.81-5.27-3.22-4.98-4.39-7.03-2.93-5.27-4.98-11.13-3.22-8.79-2.34-7.03-2.93-12.3-1.46-9.67-.88-8.2-.59-10.55v-4.39l.88-14.06,1.76-12.01,2.05-9.08,2.05-7.91,3.81-10.55,3.22-7.32,3.81-8.2,2.64-4.39,4.98-8.2,3.81-5.27,4.1-5.57,2.64-3.22,4.1-4.39,2.34-2.34,2.05-2.34,55.66-55.66,1.46-1.76h.59l.59-1.17,58.89-58.89,2.34-2.05,3.81-3.52,1.17-.59v-.59l2.34-2.05,4.98-3.81,4.98-3.52,4.1-2.93,4.1-2.34,4.98-2.93,4.69-2.64,4.69-2.34,7.62-3.52,10.55-3.81,5.86-1.76,11.13-2.64,11.13-1.76,7.62-.88,4.1-.29Z"/>
  <path class="cls-4" d="M350.39,210.64l4.69.29,4.1.59,6.15,1.76,5.57,2.93,3.81,2.93,3.22,2.64,4.1,4.39,2.64,3.22,2.34,2.34,3.22,4.1,3.81,5.27,4.1,5.86,6.15,10.25,2.64,4.98,4.69,10.55,3.22,9.08,2.64,8.79,2.34,9.96,2.05,12.6.59,6.45.29,7.91v4.39l-.59,11.72-.88,8.5-1.46,9.67-2.64,11.13-3.52,10.55-2.34,6.15-3.52,7.62-3.22,6.74-4.69,7.91-2.64,4.39-3.81,5.27-4.69,6.15-2.34,2.93-3.22,3.22-2.05,2.34-3.22,3.52-2.64,2.93-4.98,4.98-2.34,2.05-38.67,38.67-2.34,2.05-35.45,35.45h-.59l-.59,1.17-.88.88h-.59l-.59,1.17-8.79,8.79h-.59l-.29.88-2.34,2.05-15.82,15.82-2.34,2.05-4.39,4.1-2.34,2.05-5.27,4.1-4.1,2.93-4.69,3.22-8.5,4.98-5.27,2.93-7.62,3.52-4.1,2.05-11.43,4.1-5.86,1.76-9.67,2.34-12.89,2.05-8.5.88-3.81.29h-11.72l-8.2-.59-15.23-2.05-9.08-2.05-7.62-2.05-11.43-4.1-7.03-3.22-5.57-2.64-6.74-3.81-7.03-4.1-4.69-3.22-5.57-4.1-2.93-2.34-2.93-2.64-2.05-2.05-2.34-2.05-3.52-3.22-2.93-2.93-2.05-2.34-3.81-4.1-2.64-3.22-3.81-4.98-4.1-5.57-2.93-4.39-3.81-6.74-2.64-4.69-4.69-9.67-2.34-5.86-3.52-10.55-2.64-9.38-1.76-8.2-1.76-12.89-.59-6.74v-15.82l1.46-13.48,1.46-9.08,3.52-14.06,3.52-10.55,1.76-4.39,4.98-10.25,2.64-4.98,6.15-10.25,3.81-5.27,2.93-3.81,2.34-3.22,4.69-4.98,2.64-2.64.59-.88h.59l.59-1.17,19.92-19.92,2.05-2.34,1.17-.59.59-1.17,17.87-17.87,4.1-3.22,3.52-2.64,5.27-2.93,6.45-1.76,7.03-.88,6.74.59,6.15,1.46,3.81,1.46,5.57,3.22,3.81,3.22,2.34,2.05,2.64,3.22,2.34,3.22,2.64,4.98,2.34,6.74.88,5.86v5.27l-.59,4.69-2.34,7.03-3.52,6.74-4.1,4.98-3.52,3.81-39.26,39.26-2.64,3.22-2.34,2.64-2.34,3.22-2.05,3.22-3.52,6.45-2.64,5.57-2.93,8.79-1.46,5.86-.88,5.57-.29,4.98v8.2l.88,8.5,1.76,7.32,2.93,8.79,4.39,9.08,2.93,4.98,2.93,3.81,2.34,2.93,2.64,2.93,2.05,2.34,4.1,3.81,3.81,2.93,4.39,3.22,7.03,3.81,6.74,3.22,7.03,2.34,7.62,1.76,7.32,1.17h13.18l8.79-1.46,7.03-1.76,6.74-2.34,7.32-3.52,5.86-3.22,3.22-2.34,4.1-3.22,2.93-2.64,4.1-3.52,113.38-113.38,2.05-2.34,3.81-4.39,3.81-5.27,2.93-4.98,4.1-8.2,2.34-6.74,1.76-6.45,1.17-5.86.59-4.98v-12.3l-1.17-7.62-1.76-7.62-2.34-7.03-2.05-4.39-2.34-4.69-3.22-5.57-3.81-4.98-3.22-3.81-2.05-2.34-2.64-2.93-3.22-4.1-2.93-5.27-1.76-5.27-.88-3.81-.59-5.27.29-4.1.59-4.69,2.05-6.74,2.93-5.86,2.34-2.93,3.52-3.81,4.39-3.81,2.93-2.05,5.57-2.93,5.86-1.76,7.32-.88Z"/>
  <text class="cls-3" transform="translate(619.09 328.43)"><tspan class="cls-4" x="0" y="0">Bright</tspan><tspan class="cls-2" x="1293.6" y="0">Chain</tspan></text>
  <text class="cls-6" transform="translate(634.5 554.91)"><tspan class="cls-12" x="0" y="0">P</tspan><tspan x="116.22" y="0">ri</tspan><tspan class="cls-11" x="236.53" y="0">v</tspan><tspan class="cls-5" x="330.72" y="0">ac</tspan><tspan class="cls-9" x="532.93" y="0">y</tspan><tspan class="cls-1" x="619.51" y="0">. </tspan><tspan class="cls-12" x="718.57" y="0">P</tspan><tspan x="834.78" y="0">a</tspan><tspan class="cls-13" x="938.91" y="0">r</tspan><tspan x="1011.26" y="0">ticipation. </tspan><tspan class="cls-8" x="1928.72" y="0">P</tspan><tspan class="cls-10" x="2042.99" y="0">ow</tspan><tspan class="cls-1" x="2300" y="0">e</tspan><tspan class="cls-7" x="2407.05" y="0">r</tspan><tspan class="cls-1" x="2463.02" y="0">.</tspan></text>
</svg>