<?xml version="1.0" encoding="UTF-8"?>
<svg id="Layer_1" data-name="Layer 1" xmlns="http://www.w3.org/2000/svg" viewBox="0 0 2760.6 600">
  <defs>
    <style>
      .cls-1 {
        fill: #46b6fd;
      }

      .cls-2 {
        font-family: Inter-Bold, Inter;
        font-size: 433px;
        font-variation-settings: 'wght' 700, 'slnt' 0;
        font-weight: 700;
      }

      .cls-3 {
        fill: #0a60d0;
      }
    </style>
  </defs>
  <text class="cls-2" transform="translate(473.13 472.57)"><tspan class="cls-3" x="0" y="0">Top</tspan><tspan class="cls-1" x="828.93" y="0">Secret</tspan></text>
  <path class="cls-3" d="M180.05,55.45c10.3-10.8,23.9-18.9,40.7-18.9,12.9,0,24.4,5,32.7,9,3.9,1.8,7.1,2.7,9.3,2.7s5.4-.8,9.3-2.7c8.3-4,19.8-9,32.7-9,16.8,0,30.4,8.2,40.7,18.9,10.2,10.6,18,24.6,24,38.8,9.8,23,15.9,49.2,19.2,70.3h34c8.8,0,16,7.2,16,16s-7.2,16-16,16h-32v32c0,17-3.3,33.2-9.3,48h41.3c5.4,0,10.3,2.7,13.3,7.1s3.5,10.1,1.5,15l-34.4,82.7c23.6,14.6,43,36.6,57.1,61.4,16.7,29.5,26.6,64.2,26.6,97.7v8c0,8.8-7.2,16-16,16s-16-7.2-16-16v-8c0-27.5-8.2-56.8-22.4-82-14.3-25.2-34.1-45.2-56.3-55.5-7.8-3.6-11.3-12.7-8-20.7l30.8-73.8h-36.1c-23.5,29.3-59.5,48-99.9,48s-76.5-18.7-99.9-48h-36.1l30.8,73.8c3.3,7.9-.2,17-8,20.7-22.3,10.3-42,30.3-56.3,55.5-14.3,25.1-22.4,54.4-22.4,82v8c0,8.8-7.2,16-16,16s-16.2-7.1-16.2-15.9v-8c0-33.5,9.8-68.2,26.6-97.7,14.1-24.9,33.5-46.9,57.1-61.4l-34.5-82.7c-2.1-4.9-1.5-10.6,1.5-15,3-4.4,8-7.1,13.3-7.1h41.3c-6-14.8-9.3-31-9.3-48v-32h-32c-8.8,0-16-7.2-16-16s7.2-16,16-16h34c3.3-21,9.5-47.3,19.2-70.3,6-14.3,13.9-28.2,24-38.8l.1-.1ZM169.15,164.55h187.1c-3.1-18.1-8.5-39.5-16.2-57.7-5.3-12.4-11.3-22.5-17.7-29.2-6.3-6.6-12-9.1-17.6-9.1-5.2,0-11,2-19,5.9-6,2.9-14.2,5.8-23,5.8s-17-2.9-23-5.8c-8-3.8-13.8-5.9-19-5.9-5.6,0-11.4,2.5-17.6,9.1-6.4,6.7-12.4,16.8-17.7,29.2-7.8,18.3-13.1,39.6-16.2,57.7h-.1ZM170.95,256.95c12.2,39.2,48.7,67.6,91.8,67.6s79.6-28.4,91.7-67.6c-6.1,2.3-12.8,3.6-19.7,3.6h-27.2c-18,0-34.5-8.6-44.8-22.4-10.4,13.9-26.9,22.4-44.8,22.4h-27.2c-6.9,0-13.6-1.3-19.7-3.6h-.1ZM358.75,204.55v-8h-79.1l5.2,15.6c3.3,9.8,12.4,16.4,22.8,16.4h27.2c13.3,0,24-10.7,24-24h-.1ZM245.85,196.55h-79.1v8c0,13.3,10.7,24,24,24h27.2c10.3,0,19.5-6.6,22.8-16.4l5.2-15.6h-.1ZM294.75,420.55h-9.8l41,122.9c1.6,4.9.8,10.2-2.2,14.4s-7.8,6.6-13,6.6h-96c-5.1,0-10-2.5-13-6.6-3-4.1-3.8-9.5-2.2-14.4l41-122.9h-9.8c-8.8,0-16-7.2-16-16s7.2-16,16-16h64c8.8,0,16,7.2,16,16s-7.2,16-16,16ZM262.75,455.15l-25.8,77.4h51.6l-25.8-77.4Z"/>
</svg>