<?xml version="1.0" encoding="UTF-8"?>
<svg id="Layer_1" data-name="Layer 1" xmlns="http://www.w3.org/2000/svg" viewBox="0 0 2645.2 600">
  <defs>
    <style>
      .cls-1 {
        fill: #46b6fd;
      }

      .cls-2 {
        font-family: Inter-Bold, Inter;
        font-size: 433px;
        font-variation-settings: 'wght' 700, 'slnt' 0;
        font-weight: 700;
      }

      .cls-3 {
        fill: #0a60d0;
      }
    </style>
  </defs>
  <text class="cls-2" transform="translate(357.73 472.57)"><tspan class="cls-3" x="0" y="0">Top</tspan><tspan class="cls-1" x="828.93" y="0">Secret</tspan></text>
  <path class="cls-3" d="M153.17,143.67c6.59-6.91,15.3-12.1,26.05-12.1,8.26,0,15.62,3.2,20.93,5.76,2.5,1.15,4.54,1.73,5.95,1.73s3.46-.51,5.95-1.73c5.31-2.56,12.67-5.76,20.93-5.76,10.75,0,19.46,5.25,26.05,12.1,6.53,6.78,11.52,15.74,15.36,24.83,6.27,14.72,10.18,31.49,12.29,44.99h21.76c5.63,0,10.24,4.61,10.24,10.24s-4.61,10.24-10.24,10.24h-20.48v20.48c0,10.88-2.11,21.25-5.95,30.72h26.43c3.46,0,6.59,1.73,8.51,4.54s2.24,6.46.96,9.6l-22.02,52.93c15.1,9.34,27.52,23.42,36.54,39.3,10.69,18.88,17.02,41.09,17.02,62.53v5.12c0,5.63-4.61,10.24-10.24,10.24s-10.24-4.61-10.24-10.24v-5.12c0-17.6-5.25-36.35-14.34-52.48-9.15-16.13-21.82-28.93-36.03-35.52-4.99-2.3-7.23-8.13-5.12-13.25l19.71-47.23h-23.1c-15.04,18.75-38.08,30.72-63.94,30.72s-48.96-11.97-63.94-30.72h-23.1l19.71,47.23c2.11,5.06-.13,10.88-5.12,13.25-14.27,6.59-26.88,19.39-36.03,35.52-9.15,16.06-14.34,34.82-14.34,52.48v5.12c0,5.63-4.61,10.24-10.24,10.24s-10.37-4.54-10.37-10.18v-5.12c0-21.44,6.27-43.65,17.02-62.53,9.02-15.94,21.44-30.02,36.54-39.3l-22.08-52.93c-1.34-3.14-.96-6.78.96-9.6,1.92-2.82,5.12-4.54,8.51-4.54h26.43c-3.84-9.47-5.95-19.84-5.95-30.72v-20.48h-20.48c-5.63,0-10.24-4.61-10.24-10.24s4.61-10.24,10.24-10.24h21.76c2.11-13.44,6.08-30.27,12.29-44.99,3.84-9.15,8.9-18.05,15.36-24.83l.06-.06ZM146.2,213.49h119.74c-1.98-11.58-5.44-25.28-10.37-36.93-3.39-7.94-7.23-14.4-11.33-18.69-4.03-4.22-7.68-5.82-11.26-5.82-3.33,0-7.04,1.28-12.16,3.78-3.84,1.86-9.09,3.71-14.72,3.71s-10.88-1.86-14.72-3.71c-5.12-2.43-8.83-3.78-12.16-3.78-3.58,0-7.3,1.6-11.26,5.82-4.1,4.29-7.94,10.75-11.33,18.69-4.99,11.71-8.38,25.34-10.37,36.93h-.06ZM147.35,272.63c7.81,25.09,31.17,43.26,58.75,43.26s50.94-18.18,58.69-43.26c-3.9,1.47-8.19,2.3-12.61,2.3h-17.41c-11.52,0-22.08-5.5-28.67-14.34-6.66,8.9-17.22,14.34-28.67,14.34h-17.41c-4.42,0-8.7-.83-12.61-2.3h-.06ZM267.54,239.09v-5.12h-50.62l3.33,9.98c2.11,6.27,7.94,10.5,14.59,10.5h17.41c8.51,0,15.36-6.85,15.36-15.36h-.06ZM195.28,233.97h-50.62v5.12c0,8.51,6.85,15.36,15.36,15.36h17.41c6.59,0,12.48-4.22,14.59-10.5l3.33-9.98h-.06ZM226.58,377.33h-6.27l26.24,78.66c1.02,3.14.51,6.53-1.41,9.22s-4.99,4.22-8.32,4.22h-61.44c-3.26,0-6.4-1.6-8.32-4.22-1.92-2.62-2.43-6.08-1.41-9.22l26.24-78.66h-6.27c-5.63,0-10.24-4.61-10.24-10.24s4.61-10.24,10.24-10.24h40.96c5.63,0,10.24,4.61,10.24,10.24s-4.61,10.24-10.24,10.24ZM206.1,399.48l-16.51,49.54h33.02l-16.51-49.54Z"/>
</svg>