<?xml version="1.0" encoding="UTF-8"?>
<svg id="uuid-f3454cf9-d84f-45f6-9978-d209bf74931f" xmlns="http://www.w3.org/2000/svg" viewBox="0 0 353.45 359.53">
  <defs>
    <style>
      .cls-1 {
        stroke: #7d3721;
      }

      .cls-1, .cls-2, .cls-3, .cls-4, .cls-5, .cls-6, .cls-7, .cls-8 {
        fill: none;
        stroke-width: 2px;
      }

      .cls-2 {
        stroke: #fbcd80;
      }

      .cls-3 {
        stroke: #fcd983;
      }

      .cls-4 {
        stroke: #846d20;
      }

      .cls-9 {
        fill: #fba718;
      }

      .cls-5 {
        stroke: #f57c1d;
      }

      .cls-6 {
        stroke: #828884;
      }

      .cls-7 {
        stroke: #f68820;
      }

      .cls-10 {
        fill: #fdbe1e;
      }

      .cls-11 {
        fill: #091b1f;
      }

      .cls-8 {
        stroke: #f5a284;
      }

      .cls-12 {
        fill: #ef5121;
      }

      .cls-13 {
        fill: #0a1c21;
      }

      .cls-14 {
        fill: #fcfbf8;
      }
    </style>
  </defs>
  <path class="cls-14" d="M244.55,344.06c6.68,0,13.42.83,20.12-1.6-1.83.76-3.86,1.57-5.94,2.25-.61.2-1.35.04-2.02.04-52.22,0-104.44.02-156.66-.06-2.33,0-4.65-.91-7.09-1.58,16.82,2.39,33.86.81,50.85.95,32.62.28,65.25.08,98.37.08,1.12-.02,1.75-.06,2.37-.09h0Z"/>
  <path class="cls-14" d="M92.32,342.62c.1-.06.28,0,.52.21-.13.12-.3.04-.52-.21Z"/>
  <path class="cls-14" d="M91.16,342.04c.1-.06.28,0,.52.21-.13.11-.3.03-.52-.21Z"/>
  <path class="cls-11" d="M244.41,343.94c-.49.16-1.11.19-1.96.18.46-.13,1.14-.22,1.96-.18Z"/>
  <path class="cls-2" d="M51.04,266.24l16.38-18.12" vector-effect="non-scaling-stroke"/>
  <path class="cls-8" d="M67.42,248.13l11.61-13.07" vector-effect="non-scaling-stroke"/>
  <path class="cls-2" d="M79.03,235.06l25.83-28.36" vector-effect="non-scaling-stroke"/>
  <path class="cls-8" d="M104.86,206.7l30.39-33.63" vector-effect="non-scaling-stroke"/>
  <path class="cls-2" d="M135.25,173.07l13.03-13.91" vector-effect="non-scaling-stroke"/>
  <path class="cls-8" d="M148.29,159.16c9.96-10.66,19.96-21.22,30.02-31.7,3.93-4.1,8.01-7.9,8.15-14.11.28-12.2-4.29-23.68-12.74-32.43-.18-.19-.5-.05-.49.21.13,2.53.12,5.31-.04,8.34-.68,12.85-8.57,24.24-19.14,30.97-.33.21-.76.06-.9-.29-3.25-8.36-4.4-16.83-3.44-25.39.88-7.85,4.12-18.07,4.84-26.26.72-8.06.6-15.15-.36-21.29-2.98-19.07-13.37-35.96-29.84-46.19-.18-.11-.41.06-.35.27,2.41,8.26,3.39,16.81,2.91,25.67-.75,13.91-6.54,28.07-12.01,40.85-2.25,5.26-4.49,11.77-5.38,16.62-1.64,8.95-1.13,17.94,1.5,26.98,2.5,8.55,4.04,13.81,4.61,15.78,1.27,4.4,1.74,8.69,1.41,12.88-.01.22-.32.26-.39.05-1.91-5.61-4.8-12.52-9-18.22-8.48-11.5-18.21-22.86-19.24-37.85-.79-11.59,1.81-24.18,5.73-35.42.08-.22-.16-.41-.36-.29-12.45,7.79-22.19,18.19-29.23,31.19-6.26,11.56-9.49,26.89-8.01,39.89,1.29,11.42,6.15,22.18,9.69,32.35,5.9,16.95,1.48,34.88-7.8,49.71-.08.12-.25.13-.34.02-5.12-6.7-8.43-13.85-7.2-22.65.43-3.06.86-6.15,1.3-9.27,2.2-15.56-5.1-28.01-15.78-38.65-.15-.15-.4-.02-.37.18.71,5.45.84,11.27.38,17.44-.3,4.02-1.6,8.53-3.92,13.55-2.44,5.3-4.56,9.58-6.35,12.82-4.41,8-7.21,16.02-7.74,23.49-.71,9.93.48,19.75,3.58,29.48,2.38,7.45,5.67,17.11,9.86,28.97,2.81,7.95,4.23,16.13,4.24,24.56,0,.31.38.45.59.23l14.31-15.41" vector-effect="non-scaling-stroke"/>
  <path class="cls-5" d="M148.29,159.16c-.39-.17-.59-.63-.62-1.36-.03-.68-.1-1.19-.21-1.53-2.11-6.29-4.7-12.27-7.78-17.94-.16-.3-.61-.22-.66.12-.67,4.56-3.01,11.89-3.68,17.71-.64,5.55-.67,11.19-.08,16.9" vector-effect="non-scaling-stroke"/>
  <path class="cls-5" d="M104.86,206.7c.09-1.2.45-2.41,1.1-3.61.1-.19.17-.39.23-.6,1.37-5.12,2.37-10.21,3.02-15.27.92-7.19.25-14.2-2.03-21.01-2.67-7.97-6.4-15.3-11.19-21.97-.1-.14-.33-.08-.36.09-.14.94-.2,1.71-.18,2.29.27,7.22.46,18.23-.97,26.88-1.04,6.24-1.9,10.45-2.61,12.64-1.67,5.18-5.63,19.29-11.88,42.32-.77,2.83-1.09,5.03-.96,6.61" vector-effect="non-scaling-stroke"/>
  <path class="cls-5" d="M67.42,248.13c-.36-.43-.64-.94-.87-1.54-.31-.86-.53-1.41-.65-1.64-4.75-9.19-12.09-17.25-20.4-23.98-.22-.18-.54.06-.43.32,1.33,3.46,2.6,7.44,3.81,11.94,2.71,10.07,3.16,20.45,1.37,31.15-.15.86.12,1.48.79,1.86" vector-effect="non-scaling-stroke"/>
  <path class="cls-8" d="M77.09,262.88l17.16-3.72c.25-.06.42.25.25.43-7.26,7.75-19.43,18.78-28.44,27.82-24.79,24.85-42.71,42.76-64.95,64.29-.08.08-.11.17-.1.29,0,.14.16.24.29.19,3.05-1.02,7.61-2.57,13.66-4.63,9.55-3.27,18.63-7.55,27.22-12.85,2.49-1.53,5.87-3.61,10.13-6.24.21-.13.43.13.29.32-5.7,7.9-11.9,15.81-18.58,23.72-.18.22.04.53.31.43,3.93-1.48,7.89-3.27,11.49-5.47,7.73-4.71,14.91-10.1,21.52-16.17.07-.06.17-.08.25-.03.12.06.1.1-.05.15" vector-effect="non-scaling-stroke"/>
  <path class="cls-6" d="M67.56,331.4c.25,13.18,10.05,24.57,22.99,26.52,2.7.41,5.79.61,9.26.61,66.84-.01,126.64-.01,179.38,0,6.36,0,12.66-1.27,17.9-4.96,6.47-4.54,10.44-10.52,11.91-17.93.34-1.71.5-7.45.5-17.23-.03-38.82-.01-77.65.04-116.51" vector-effect="non-scaling-stroke"/>
  <path class="cls-3" d="M309.53,201.91c1.11-5.11,1.83-8.62,2.14-10.51,2.74-16.49,1.24-30.78-1.49-48.66-1.62-10.61.23-23.42,6.91-32.05,2.29-2.96,4-5.31,5.14-7.04" vector-effect="non-scaling-stroke"/>
  <path class="cls-6" d="M322.23,103.65l30.07-12.02c.18-.07.21-.32.04-.43-9.61-5.89-19.78-10.55-30.51-13.96-.77-.25-1.24-.65-1.41-1.23" vector-effect="non-scaling-stroke"/>
  <path class="cls-3" d="M320.42,76c-4.36-8.35-10.25-15.2-17.66-20.54-18.99-13.68-44.27-14.27-63.31-.21-10.33,7.64-18.03,17.31-23.1,29.04-2.37,5.47-4.19,9.79-5.48,12.99-2.35,5.83-4.35,10.07-5.98,12.71-4.59,7.43-9.64,13.35-15.13,19.47-38.47,42.82-75.54,83.92-111.2,123.3-3.76,4.16-7.23,7.93-10.42,11.31-.15.16,0,.43.21.39l8.74-1.58" vector-effect="non-scaling-stroke"/>
  <path class="cls-4" d="M320.42,76l-8.81,18.72c-.11.22-.04.5.15.65l10.47,8.27" vector-effect="non-scaling-stroke"/>
  <path class="cls-4" d="M309.53,201.91c-.55,1.2-1.02,2.46-1.4,3.77-.55,1.88-.96,3.15-1.22,3.82-9.13,23.49-24.05,42.37-44.74,56.63-14.57,10.04-30.37,17.03-47.4,20.97-5.38,1.25-9.97,2.19-13.75,2.81-.17.03-.27.23-.18.38l22.19,38.43c.2.34.55.55.94.54,5.79,0,11.49.28,17.09.86,6.39.67,11.33,3.69,14.83,9.04.12.19,0,.43-.24.43h-97.42c-.32,0-.48-.37-.28-.61,6.65-7.8,16.65-11.49,26.69-12.86,6.01-.82,12.53-1.79,17.41-.9,1.25.23,2.34.35,3.25.36.19,0,.29-.22.16-.36-2.04-2.2-9.98-10.74-23.84-25.6-2.36-2.53-4.08-5.12-5.18-7.78-.08-.17-.23-.29-.41-.31l-49.23-4.92" vector-effect="non-scaling-stroke"/>
  <path class="cls-7" d="M126.8,286.63c.09-.3.38-.59.86-.85,10.93-6.01,21.27-10.67,31.02-13.97,3.56-1.2,10.7-3.58,21.41-7.13,7.45-2.47,15.35-5.64,23.71-9.53,23.92-11.1,45.91-27.28,56.88-51.63,3.53-7.84,5.44-16.03,5.71-24.56.5-15.49-4.69-29.54-14.69-41.12-.04-.04-.11-.06-.15-.02-.04.03-.06.1-.03.15,4.26,8.18,5.9,16.44,4.87,26.05-.9,8.38-3.14,16.69-6.72,24.93-1.8,4.14-4.28,7.92-7.11,11.35-3.96,4.81-8.84,10.04-13.97,14.24-10.62,8.72-21.97,15.55-34.04,20.52-19.87,8.17-41.03,14.06-63.45,17.66-3.27.52-5.84.88-7.69,1.06-3.79.37-6.35.76-7.67,1.17-.1.03-.25,0-.46-.08-.15-.06-.15-.27-.01-.34,4.78-2.41,8.47-5.5,13.94-9.81,5.4-4.27,9.42-7.82,12.05-10.65,6.12-6.59,11.69-12.08,16.68-16.49.05-.04.06-.1,0-.15h0s-.1-.06-.14-.02c-20.02,15.81-42.7,28.55-65.74,38.93-4.91,2.21-9.61,3.94-15.15,6.01-.15.06-.17.27-.03.35,0,0,.07.06.2.16" vector-effect="non-scaling-stroke"/>
  <path class="cls-1" d="M126.8,286.63c-6.03,3.33-12.13,7.21-18.3,11.65-9.16,6.59-17.56,12.97-25.17,19.13-4.95,4-9.75,8.18-14.41,12.53-.46.42-.91.9-1.37,1.46" vector-effect="non-scaling-stroke"/>
  <path class="cls-4" d="M271.78,76.64c-2.65,5.16-.54,11.53,4.72,14.23,5.25,2.7,11.67.71,14.32-4.45,2.65-5.16.54-11.53-4.72-14.23-5.25-2.7-11.67-.71-14.32,4.45" vector-effect="non-scaling-stroke"/>
  <ellipse class="cls-13" cx="281.31" cy="81.53" rx="10.5" ry="10.7" transform="translate(80.2 294.46) rotate(-62.8)"/>
  <path class="cls-13" d="M322.23,103.65l-10.47-8.27c-.2-.15-.26-.43-.15-.65l8.81-18.72c.17.58.64.99,1.41,1.23,10.72,3.42,20.9,8.07,30.51,13.96.17.11.14.36-.04.43,0,0-30.07,12.02-30.07,12.02Z"/>
  <path class="cls-13" d="M309.53,201.91c-.06,38.86-.07,77.69-.04,116.51,0,9.77-.15,15.51-.5,17.23-1.47,7.41-5.44,13.39-11.91,17.93-5.24,3.68-11.54,4.96-17.9,4.96-52.74-.01-112.53-.01-179.38,0-3.47,0-6.56-.2-9.26-.61-12.94-1.95-22.74-13.34-22.99-26.52.46-.55.92-1.04,1.37-1.46,4.65-4.35,9.46-8.53,14.41-12.53,7.62-6.16,16.01-12.54,25.17-19.13,6.17-4.44,12.27-8.32,18.3-11.65l49.23,4.92c.18.02.34.14.41.31,1.1,2.65,2.82,5.25,5.18,7.78,13.86,14.86,21.8,23.39,23.84,25.6.13.13.03.36-.16.36-.92,0-2-.13-3.25-.36-4.88-.89-11.4.08-17.41.9-10.05,1.37-20.04,5.06-26.69,12.86-.2.24-.04.61.28.61h97.42c.22,0,.36-.25.24-.43-3.5-5.36-8.44-8.37-14.83-9.04-5.61-.58-11.3-.87-17.09-.86-.39,0-.75-.2-.94-.54l-22.19-38.43c-.09-.15,0-.36.18-.38,3.79-.62,8.37-1.56,13.75-2.81,17.04-3.94,32.84-10.93,47.4-20.97,20.69-14.26,35.61-33.14,44.74-56.63.26-.67.67-1.95,1.22-3.82.38-1.31.85-2.56,1.4-3.77v-.03Z"/>
  <path class="cls-12" d="M148.29,159.16c-.39-.17-.59-.63-.62-1.36-.03-.68-.1-1.19-.21-1.53-2.11-6.29-4.7-12.27-7.78-17.94-.16-.3-.61-.22-.66.12-.67,4.56-3.01,11.89-3.68,17.71-.64,5.55-.67,11.19-.08,16.9l-30.39,33.63c.09-1.2.45-2.41,1.1-3.61.1-.19.17-.39.23-.6,1.37-5.12,2.37-10.21,3.02-15.27.92-7.19.25-14.2-2.03-21.01-2.67-7.97-6.4-15.3-11.19-21.97-.1-.14-.33-.08-.36.09-.14.94-.2,1.71-.18,2.29.27,7.22.46,18.23-.97,26.88-1.04,6.24-1.9,10.45-2.61,12.64-1.67,5.18-5.63,19.29-11.88,42.32-.77,2.83-1.09,5.03-.96,6.61l-11.61,13.07c-.36-.43-.64-.94-.87-1.54-.31-.86-.53-1.41-.65-1.64-4.75-9.19-12.09-17.25-20.4-23.98-.22-.18-.54.06-.43.32,1.33,3.46,2.6,7.44,3.81,11.94,2.71,10.07,3.16,20.45,1.37,31.15-.15.86.12,1.48.79,1.86l-14.31,15.41c-.21.22-.59.08-.59-.23,0-8.42-1.42-16.6-4.24-24.56-4.19-11.87-7.48-21.52-9.86-28.97-3.1-9.72-4.29-19.54-3.58-29.48.53-7.47,3.33-15.48,7.74-23.49,1.78-3.24,3.91-7.52,6.35-12.82,2.32-5.01,3.62-9.53,3.92-13.55.46-6.17.33-11.98-.38-17.44-.03-.2.22-.33.37-.18,10.68,10.64,17.98,23.09,15.78,38.65-.44,3.12-.88,6.21-1.3,9.27-1.24,8.8,2.07,15.95,7.2,22.65.09.11.26.1.34-.02,9.27-14.83,13.7-32.77,7.8-49.71-3.54-10.17-8.4-20.92-9.69-32.35-1.48-13,1.75-28.32,8.01-39.89,7.03-13,16.78-23.4,29.23-31.19.2-.12.43.07.36.29-3.93,11.24-6.52,23.83-5.73,35.42,1.02,14.99,10.76,26.35,19.24,37.85,4.2,5.7,7.09,12.61,9,18.22.07.21.38.17.39-.05.33-4.19-.14-8.48-1.41-12.88-.57-1.97-2.11-7.24-4.61-15.78-2.64-9.04-3.14-18.03-1.5-26.98.89-4.84,3.12-11.35,5.38-16.62,5.47-12.78,11.26-26.94,12.01-40.85.48-8.85-.5-17.41-2.91-25.67-.06-.21.17-.38.35-.27,16.47,10.23,26.86,27.12,29.84,46.19.96,6.14,1.08,13.23.36,21.29-.73,8.18-3.97,18.4-4.84,26.26-.96,8.56.19,17.02,3.44,25.39.14.36.57.5.9.29,10.56-6.73,18.46-18.12,19.14-30.97.16-3.04.18-5.82.04-8.34,0-.26.31-.4.49-.21,8.45,8.75,13.02,20.23,12.74,32.43-.14,6.21-4.22,10.01-8.15,14.11-10.05,10.47-20.06,21.03-30.02,31.7h-.06Z"/>
  <path class="cls-12" d="M126.8,286.63c-6.03,3.33-12.13,7.21-18.3,11.65-9.16,6.59-17.56,12.97-25.17,19.13-4.95,4-9.75,8.18-14.41,12.53-.46.42-.91.9-1.37,1.46.15-.04.17-.09.05-.15-.08-.04-.18-.03-.25.03-6.62,6.07-13.79,11.46-21.52,16.17-3.61,2.2-7.57,3.99-11.49,5.47-.27.1-.49-.22-.31-.43,6.68-7.9,12.87-15.81,18.58-23.72.14-.2-.08-.45-.29-.32-4.26,2.62-7.64,4.7-10.13,6.24-8.6,5.3-17.67,9.58-27.22,12.85-6.06,2.07-10.61,3.61-13.66,4.63-.13.05-.28-.05-.29-.19,0-.12.03-.22.1-.29,22.25-21.53,40.16-39.44,64.95-64.29,9.02-9.04,21.18-20.07,28.44-27.82.18-.18,0-.48-.25-.43l-17.16,3.72c-.13-.1-.19-.15-.2-.16-.14-.08-.13-.29.03-.35,5.54-2.07,10.23-3.8,15.15-6.01,23.04-10.39,45.72-23.13,65.74-38.93.04-.03.11-.03.14,0h0c.04.06.03.12,0,.16-4.99,4.4-10.56,9.9-16.68,16.49-2.63,2.83-6.65,6.38-12.05,10.65-5.47,4.32-9.16,7.41-13.94,9.81-.14.07-.13.28.01.34.21.08.36.11.46.08,1.32-.41,3.89-.8,7.67-1.17,1.85-.19,4.42-.54,7.69-1.06,22.42-3.6,43.57-9.49,63.45-17.66,12.07-4.96,23.42-11.8,34.04-20.52,5.12-4.21,10.01-9.44,13.97-14.24,2.83-3.43,5.31-7.21,7.11-11.35,3.58-8.25,5.82-16.55,6.72-24.93,1.04-9.61-.61-17.88-4.87-26.05-.03-.05,0-.11.03-.15.05-.03.12-.02.15.02,10,11.58,15.19,25.63,14.69,41.12-.27,8.53-2.18,16.72-5.71,24.56-10.97,24.35-32.96,40.53-56.88,51.63-8.36,3.88-16.26,7.06-23.71,9.53-10.72,3.56-17.85,5.94-21.41,7.13-9.76,3.3-20.1,7.95-31.02,13.97-.48.26-.77.55-.86.85h0Z"/>
  <path class="cls-10" d="M320.42,76l-8.81,18.72c-.11.22-.04.5.15.65l10.47,8.27c-1.13,1.73-2.85,4.07-5.14,7.04-6.68,8.63-8.53,21.44-6.91,32.05,2.73,17.88,4.23,32.17,1.49,48.66-.32,1.9-1.03,5.4-2.14,10.51-.55,1.2-1.02,2.46-1.4,3.77-.55,1.88-.96,3.15-1.22,3.82-9.13,23.49-24.05,42.37-44.74,56.63-14.57,10.04-30.37,17.03-47.4,20.97-5.38,1.25-9.97,2.19-13.75,2.81-.17.03-.27.23-.18.38l22.19,38.43c.2.34.55.55.94.54,5.79,0,11.49.28,17.09.86,6.39.67,11.33,3.69,14.83,9.04.12.19,0,.43-.24.43h-97.42c-.32,0-.48-.37-.28-.61,6.65-7.8,16.65-11.49,26.69-12.86,6.01-.82,12.53-1.79,17.41-.9,1.25.23,2.34.35,3.25.36.19,0,.29-.22.16-.36-2.04-2.2-9.98-10.74-23.84-25.6-2.36-2.53-4.08-5.12-5.18-7.78-.08-.17-.23-.29-.41-.31l-49.23-4.92c.09-.3.38-.59.86-.85,10.93-6.01,21.27-10.67,31.02-13.97,3.56-1.2,10.7-3.58,21.41-7.13,7.45-2.47,15.35-5.64,23.71-9.53,23.92-11.1,45.91-27.28,56.88-51.63,3.53-7.84,5.44-16.03,5.71-24.56.5-15.49-4.69-29.54-14.69-41.12-.04-.04-.11-.06-.15-.02-.04.03-.06.1-.03.15,4.26,8.18,5.9,16.44,4.87,26.05-.9,8.38-3.14,16.69-6.72,24.93-1.8,4.14-4.28,7.92-7.11,11.35-3.96,4.81-8.84,10.04-13.97,14.24-10.62,8.72-21.97,15.55-34.04,20.52-19.87,8.17-41.03,14.06-63.45,17.66-3.27.52-5.84.88-7.69,1.06-3.79.37-6.35.76-7.67,1.17-.1.03-.25,0-.46-.08-.15-.06-.15-.27-.01-.34,4.78-2.41,8.47-5.5,13.94-9.81,5.4-4.27,9.42-7.82,12.05-10.65,6.12-6.59,11.69-12.08,16.68-16.49.05-.04.06-.1,0-.15h0s-.1-.06-.14-.02c-20.02,15.81-42.7,28.55-65.74,38.93-4.91,2.21-9.61,3.94-15.15,6.01-.15.06-.17.27-.03.35,0,0,.07.06.2.16l-8.74,1.58c-.22.04-.36-.22-.21-.39,3.18-3.38,6.66-7.15,10.42-11.31,35.66-39.38,72.74-80.48,111.2-123.3,5.49-6.12,10.54-12.04,15.13-19.47,1.63-2.64,3.63-6.88,5.98-12.71,1.29-3.2,3.12-7.52,5.48-12.99,5.07-11.72,12.77-21.4,23.1-29.04,19.04-14.06,44.32-13.48,63.31.21,7.41,5.34,13.3,12.19,17.66,20.54v.05ZM271.78,76.64c-2.65,5.16-.54,11.53,4.72,14.23,5.25,2.7,11.67.71,14.32-4.45,2.65-5.16.54-11.53-4.72-14.23-5.25-2.7-11.67-.71-14.32,4.45Z"/>
  <path class="cls-9" d="M148.29,159.16l-13.03,13.91c-.58-5.72-.55-11.35.08-16.9.66-5.82,3-13.15,3.68-17.71.05-.34.5-.42.66-.12,3.09,5.67,5.68,11.65,7.78,17.94.11.34.18.85.21,1.53.04.73.24,1.18.62,1.36h0Z"/>
  <path class="cls-9" d="M104.86,206.7l-25.83,28.36c-.13-1.57.19-3.77.96-6.61,6.25-23.03,10.21-37.14,11.88-42.32.71-2.19,1.57-6.4,2.61-12.64,1.43-8.65,1.25-19.66.97-26.88-.02-.58.03-1.34.18-2.29.03-.18.25-.23.36-.09,4.8,6.67,8.53,14,11.19,21.97,2.27,6.81,2.95,13.82,2.03,21.01-.65,5.07-1.65,10.16-3.02,15.27-.06.21-.13.41-.23.6-.64,1.2-1.01,2.41-1.1,3.61h0Z"/>
  <path class="cls-9" d="M67.42,248.13l-16.38,18.12c-.67-.38-.94-1-.79-1.86,1.79-10.7,1.34-21.08-1.37-31.15-1.21-4.5-2.48-8.48-3.81-11.94-.1-.27.21-.5.43-.32,8.31,6.73,15.64,14.79,20.4,23.98.12.23.34.78.65,1.64.22.6.51,1.11.87,1.54h0Z"/>
</svg>